<svg width="16" height="17" viewBox="0 0 16 17" fill="none" xmlns="http://www.w3.org/2000/svg">
<path d="M4.66602 14.5C4.29935 14.5 3.98557 14.3696 3.72468 14.1087C3.46379 13.8478 3.33313 13.5338 3.33268 13.1667V4.5H2.66602V3.16667H5.99935V2.5H9.99935V3.16667H13.3327V4.5H12.666V13.1667C12.666 13.5333 12.5356 13.8473 12.2747 14.1087C12.0138 14.37 11.6998 14.5004 11.3327 14.5H4.66602ZM11.3327 4.5H4.66602V13.1667H11.3327V4.5ZM5.99935 11.8333H7.33268V5.83333H5.99935V11.8333ZM8.66602 11.8333H9.99935V5.83333H8.66602V11.8333Z" fill="url(#paint0_linear_8466_40)"/>
<defs>
<linearGradient id="paint0_linear_8466_40" x1="7.99935" y1="2.5" x2="7.99935" y2="14.5" gradientUnits="userSpaceOnUse">
<stop stop-color="#fff"/>
<stop offset="1" stop-color="#fff"/>
</linearGradient>
</defs>
</svg>
