<svg width="16" height="17" viewBox="0 0 16 17" fill="none" xmlns="http://www.w3.org/2000/svg">
<path d="M8.00065 10.6655C7.9291 10.6655 7.86287 10.6537 7.80198 10.6302C7.7411 10.6066 7.68176 10.5657 7.62398 10.5075L5.87732 8.7615C5.81243 8.69661 5.77865 8.62017 5.77598 8.53217C5.77332 8.44417 5.8071 8.3635 5.87732 8.29017C5.9511 8.21639 6.03043 8.17883 6.11532 8.1775C6.20065 8.17617 6.27998 8.21239 6.35332 8.28617L7.66732 9.60017V4.16683C7.66732 4.07217 7.6991 3.99283 7.76265 3.92883C7.82621 3.86483 7.90554 3.83306 8.00065 3.8335C8.09576 3.83395 8.1751 3.86572 8.23865 3.92883C8.30221 3.99195 8.33398 4.07128 8.33398 4.16683V9.60017L9.64798 8.28617C9.71287 8.22128 9.78998 8.18728 9.87932 8.18417C9.96865 8.18106 10.05 8.21639 10.1233 8.29017C10.1944 8.3635 10.2307 8.44217 10.232 8.52617C10.2333 8.61017 10.1973 8.68861 10.124 8.7615L8.37732 10.5082C8.31954 10.5659 8.26021 10.6066 8.19932 10.6302C8.13887 10.6537 8.07265 10.6655 8.00065 10.6655ZM4.41132 13.1668C4.10421 13.1668 3.84798 13.0642 3.64265 12.8588C3.43732 12.6535 3.33443 12.3971 3.33398 12.0895V10.8075C3.33398 10.7128 3.36576 10.6337 3.42932 10.5702C3.49287 10.5066 3.57221 10.4746 3.66732 10.4742C3.76243 10.4737 3.84176 10.5057 3.90532 10.5702C3.96887 10.6346 4.00065 10.7137 4.00065 10.8075V12.0895C4.00065 12.1922 4.04332 12.2864 4.12865 12.3722C4.21398 12.4579 4.30798 12.5006 4.41065 12.5002H11.5907C11.6929 12.5002 11.7869 12.4575 11.8727 12.3722C11.9584 12.2868 12.0011 12.1926 12.0007 12.0895V10.8075C12.0007 10.7128 12.0324 10.6337 12.096 10.5702C12.1595 10.5066 12.2389 10.4746 12.334 10.4742C12.4291 10.4737 12.5084 10.5057 12.572 10.5702C12.6355 10.6346 12.6673 10.7137 12.6673 10.8075V12.0895C12.6673 12.3966 12.5647 12.6528 12.3593 12.8582C12.154 13.0635 11.8975 13.1664 11.59 13.1668H4.41132Z" fill="url(#paint0_linear_8466_44)"/>
<defs>
<linearGradient id="paint0_linear_8466_44" x1="8.00065" y1="3.8335" x2="8.00065" y2="13.1668" gradientUnits="userSpaceOnUse">
<stop stop-color="#219EBC"/>
<stop offset="1" stop-color="#FB8500"/>
</linearGradient>
</defs>
</svg>
