<svg width="12" height="11" viewBox="0 0 12 11" fill="none" xmlns="http://www.w3.org/2000/svg">
<path d="M6.58333 0.25C6.73201 0.250165 6.87502 0.307096 6.98313 0.409162C7.09124 0.511227 7.1563 0.650723 7.16502 0.799147C7.17373 0.947571 7.12544 1.09372 7.03001 1.20774C6.93458 1.32175 6.79922 1.39502 6.65158 1.41258L6.58333 1.41667H1.91667V9.58333H10.0833V4.91667C10.0835 4.76799 10.1404 4.62498 10.2425 4.51687C10.3446 4.40876 10.4841 4.3437 10.6325 4.33498C10.7809 4.32627 10.9271 4.37456 11.0411 4.46999C11.1551 4.56541 11.2284 4.70078 11.2459 4.84842L11.25 4.91667V9.58333C11.2501 9.87767 11.1389 10.1612 10.9388 10.377C10.7387 10.5928 10.4643 10.725 10.1708 10.7471L10.0833 10.75H1.91667C1.62233 10.7501 1.33884 10.6389 1.12301 10.4388C0.907191 10.2387 0.774992 9.96434 0.752917 9.67083L0.75 9.58333V1.41667C0.749907 1.12233 0.86107 0.838836 1.06121 0.623014C1.26134 0.407191 1.53566 0.274992 1.82917 0.252917L1.91667 0.25H6.58333ZM10.2251 0.450083C10.3301 0.345464 10.4709 0.284724 10.6191 0.2802C10.7672 0.275677 10.9115 0.327709 11.0227 0.425728C11.1338 0.523748 11.2035 0.660405 11.2176 0.807943C11.2316 0.955482 11.189 1.10284 11.0983 1.22008L11.0499 1.2755L5.27492 7.04992C5.16994 7.15454 5.02908 7.21528 4.88094 7.2198C4.73281 7.22432 4.5885 7.17229 4.47734 7.07427C4.36617 6.97625 4.29649 6.83959 4.28243 6.69206C4.26838 6.54452 4.31101 6.39716 4.40167 6.27992L4.45008 6.22508L10.2251 0.450083Z" fill="#fff"/>
</svg>
