<svg width="20" height="15" viewBox="0 0 20 15" fill="none" xmlns="http://www.w3.org/2000/svg">
<path fill-rule="evenodd" clip-rule="evenodd" d="M5 0.625H15C16.3261 0.625 17.5979 1.15178 18.5355 2.08947C19.4732 3.02715 20 4.29892 20 5.625V9.375C20 10.7011 19.4732 11.9729 18.5355 12.9105C17.5979 13.8482 16.3261 14.375 15 14.375H5C3.67392 14.375 2.40215 13.8482 1.46447 12.9105C0.526784 11.9729 0 10.7011 0 9.375V5.625C0 4.29892 0.526784 3.02715 1.46447 2.08947C2.40215 1.15178 3.67392 0.625 5 0.625ZM5 1.875C4.00544 1.875 3.05161 2.27009 2.34835 2.97335C1.64509 3.67661 1.25 4.63044 1.25 5.625V9.375C1.25 10.3696 1.64509 11.3234 2.34835 12.0267C3.05161 12.7299 4.00544 13.125 5 13.125H15C15.9946 13.125 16.9484 12.7299 17.6517 12.0267C18.3549 11.3234 18.75 10.3696 18.75 9.375V5.625C18.75 4.63044 18.3549 3.67661 17.6517 2.97335C16.9484 2.27009 15.9946 1.875 15 1.875H5Z" fill="white"/>
<path d="M6.875 4.375C6.70924 4.375 6.55027 4.44085 6.43306 4.55806C6.31585 4.67527 6.25 4.83424 6.25 5V6.875H4.375C4.20924 6.875 4.05027 6.94085 3.93306 7.05806C3.81585 7.17527 3.75 7.33424 3.75 7.5C3.75 7.66576 3.81585 7.82473 3.93306 7.94194C4.05027 8.05915 4.20924 8.125 4.375 8.125H6.25V10C6.25 10.1658 6.31585 10.3247 6.43306 10.4419C6.55027 10.5592 6.70924 10.625 6.875 10.625C7.04076 10.625 7.19973 10.5592 7.31694 10.4419C7.43415 10.3247 7.5 10.1658 7.5 10V8.125H9.375C9.54076 8.125 9.69973 8.05915 9.81694 7.94194C9.93415 7.82473 10 7.66576 10 7.5C10 7.33424 9.93415 7.17527 9.81694 7.05806C9.69973 6.94085 9.54076 6.875 9.375 6.875H7.5V5C7.5 4.83424 7.43415 4.67527 7.31694 4.55806C7.19973 4.44085 7.04076 4.375 6.875 4.375ZM16.25 5.625C16.25 5.95652 16.1183 6.27446 15.8839 6.50888C15.6495 6.7433 15.3315 6.875 15 6.875C14.6685 6.875 14.3505 6.7433 14.1161 6.50888C13.8817 6.27446 13.75 5.95652 13.75 5.625C13.75 5.29348 13.8817 4.97554 14.1161 4.74112C14.3505 4.5067 14.6685 4.375 15 4.375C15.3315 4.375 15.6495 4.5067 15.8839 4.74112C16.1183 4.97554 16.25 5.29348 16.25 5.625ZM15 9.375C15 9.70652 14.8683 10.0245 14.6339 10.2589C14.3995 10.4933 14.0815 10.625 13.75 10.625C13.4185 10.625 13.1005 10.4933 12.8661 10.2589C12.6317 10.0245 12.5 9.70652 12.5 9.375C12.5 9.04348 12.6317 8.72554 12.8661 8.49112C13.1005 8.2567 13.4185 8.125 13.75 8.125C14.0815 8.125 14.3995 8.2567 14.6339 8.49112C14.8683 8.72554 15 9.04348 15 9.375Z" fill="white"/>
</svg>
