<svg width="17" height="17" viewBox="0 0 17 17" fill="#fff" xmlns="http://www.w3.org/2000/svg">
<path d="M6.53959 12.23C4.94093 12.23 3.58593 11.6747 2.47459 10.564C1.36393 9.45402 0.808594 8.09935 0.808594 6.50002C0.808594 4.90069 1.36393 3.54569 2.47459 2.43502C3.58526 1.32435 4.94026 0.769353 6.53959 0.77002C8.13893 0.770687 9.49359 1.32602 10.6036 2.43602C11.7136 3.54602 12.2689 4.90069 12.2696 6.50002C12.2696 7.19469 12.1466 7.86702 11.9006 8.51702C11.6546 9.16702 11.3313 9.72302 10.9306 10.185L16.8396 16.092C16.9329 16.1854 16.9829 16.3004 16.9896 16.437C16.9956 16.5724 16.9456 16.6934 16.8396 16.8C16.7329 16.9067 16.6149 16.96 16.4856 16.96C16.3563 16.96 16.2383 16.9067 16.1316 16.8L10.2236 10.892C9.72359 11.318 9.14859 11.6477 8.49859 11.881C7.84859 12.1144 7.19526 12.231 6.53859 12.231M6.53859 11.231C7.86526 11.231 8.98559 10.7744 9.89959 9.86102C10.8129 8.94769 11.2696 7.82735 11.2696 6.50002C11.2696 5.17269 10.8133 4.05269 9.90059 3.14002C8.98793 2.22735 7.86793 1.77069 6.54059 1.77002C5.21326 1.77002 4.09293 2.22669 3.17959 3.14002C2.26626 4.05335 1.80926 5.17335 1.80859 6.50002C1.80793 7.82669 2.26459 8.94669 3.17859 9.86002C4.09259 10.7734 5.21259 11.23 6.53859 11.23" fill="#FFFFFF"/>
</svg>
