<svg width="17" height="17" viewBox="0 0 17 17" fill="none" xmlns="http://www.w3.org/2000/svg">
<path d="M6.70833 12.6667C5.04306 12.6667 3.63383 12.0898 2.48067 10.936C1.3275 9.78222 0.750612 8.373 0.75 6.70833C0.749389 5.04367 1.32628 3.63444 2.48067 2.48067C3.63506 1.32689 5.04428 0.75 6.70833 0.75C8.37239 0.75 9.78192 1.32689 10.9369 2.48067C12.0919 3.63444 12.6685 5.04367 12.6667 6.70833C12.6667 7.38056 12.5597 8.01458 12.3458 8.61042C12.1319 9.20625 11.8417 9.73333 11.475 10.1917L16.6083 15.325C16.7764 15.4931 16.8604 15.7069 16.8604 15.9667C16.8604 16.2264 16.7764 16.4403 16.6083 16.6083C16.4403 16.7764 16.2264 16.8604 15.9667 16.8604C15.7069 16.8604 15.4931 16.7764 15.325 16.6083L10.1917 11.475C9.73333 11.8417 9.20625 12.1319 8.61042 12.3458C8.01458 12.5597 7.38056 12.6667 6.70833 12.6667ZM6.70833 10.8333C7.85417 10.8333 8.82828 10.4324 9.63067 9.63067C10.4331 8.82889 10.8339 7.85478 10.8333 6.70833C10.8327 5.56189 10.4318 4.58808 9.63067 3.78692C8.8295 2.98575 7.85539 2.58456 6.70833 2.58333C5.56128 2.58211 4.58747 2.98331 3.78692 3.78692C2.98636 4.59053 2.58517 5.56433 2.58333 6.70833C2.5815 7.85233 2.98269 8.82644 3.78692 9.63067C4.59114 10.4349 5.56494 10.8358 6.70833 10.8333Z" fill="#FB8500"/>
</svg>
