<svg xmlns="http://www.w3.org/2000/svg" xmlns:xlink="http://www.w3.org/1999/xlink" width="369" zoomAndPan="magnify" viewBox="0 0 276.75 239.999995" height="320" preserveAspectRatio="xMidYMid meet" version="1.2"><defs><clipPath id="ab3a327214"><path d="M 85 150 L 253.269531 150 L 253.269531 209 L 85 209 Z M 85 150 "/></clipPath></defs><g id="f47c3e6ca0"><path style=" stroke:none;fill-rule:nonzero;fill:#ff2757;fill-opacity:1;" d="M 174.667969 224.046875 C 177.660156 223.15625 180.574219 222.132812 183.414062 220.992188 C 134.316406 230.707031 84.992188 201.613281 70.460938 152.675781 C 55.925781 103.738281 81.378906 52.4375 127.816406 33.777344 C 124.816406 34.371094 121.816406 35.105469 118.824219 35.992188 C 66.894531 51.414062 37.296875 106.011719 52.71875 157.941406 C 68.140625 209.871094 122.738281 239.46875 174.667969 224.046875 "/><path style=" stroke:none;fill-rule:nonzero;fill:#ff8181;fill-opacity:1;" d="M 53.136719 199.152344 C 55.742188 201.191406 58.414062 203.082031 61.140625 204.839844 C 22.632812 168.359375 17.527344 107.882812 50.910156 65.304688 C 84.296875 22.726562 144.246094 13.257812 188.859375 41.957031 C 186.503906 39.726562 184.03125 37.582031 181.429688 35.539062 C 136.25 0.113281 70.902344 8.023438 35.476562 53.199219 C 0.0507812 98.382812 7.957031 163.726562 53.136719 199.152344 "/><g clip-rule="nonzero" clip-path="url(#ab3a327214)"><path style=" stroke:none;fill-rule:nonzero;fill:#ff8181;fill-opacity:1;" d="M 149.808594 194.402344 C 123.015625 187.199219 100.976562 171.136719 85.992188 150.21875 C 97.804688 176.304688 120.773438 197.09375 150.585938 205.105469 C 189.535156 215.578125 229.296875 201.328125 253.226562 171.964844 C 225.402344 194.890625 187.277344 204.472656 149.808594 194.402344 "/></g><g style="fill:#ffffff;fill-opacity:1;"><g transform="translate(119.480924, 127.563918)"><path style="stroke:none" d="M 42.78125 -14.640625 L 18 -14.640625 L 10.6875 0 L -5.078125 0 L 32.875 -71.03125 L 46.09375 -71.03125 L 59.609375 0 L 45.03125 0 Z M 23.859375 -26.484375 L 40.984375 -26.484375 L 36.984375 -52.921875 Z M 23.859375 -26.484375 "/></g></g><g style="fill:#ffffff;fill-opacity:1;"><g transform="translate(180.494741, 127.563918)"><path style="stroke:none" d="M 28.09375 -28.34375 L 18.734375 -19.65625 L 15.3125 0 L 1.03125 0 L 13.359375 -71.03125 L 27.65625 -71.03125 L 22.203125 -39.703125 L 29.46875 -47.90625 L 50.828125 -71.03125 L 69.46875 -71.03125 L 38.78125 -38.734375 L 57.078125 0 L 40.78125 0 Z M 28.09375 -28.34375 "/></g></g><g style="fill:#ff2757;fill-opacity:1;"><g transform="translate(113.293544, 169.276269)"><path style="stroke:none" d="M 18.953125 0 L 0.015625 0 L 0.65625 -4.09375 L 10.75 -13.5625 C 12.820312 -15.5 14.195312 -17.070312 14.875 -18.28125 C 15.550781 -19.488281 15.800781 -20.675781 15.625 -21.84375 C 15.351562 -23.457031 14.425781 -24.28125 12.84375 -24.3125 C 11.59375 -24.34375 10.546875 -23.90625 9.703125 -23 C 8.867188 -22.101562 8.359375 -20.929688 8.171875 -19.484375 L 2.671875 -19.453125 C 2.773438 -21.222656 3.300781 -22.828125 4.25 -24.265625 C 5.195312 -25.710938 6.460938 -26.835938 8.046875 -27.640625 C 9.628906 -28.441406 11.335938 -28.835938 13.171875 -28.828125 C 15.816406 -28.773438 17.875 -28.03125 19.34375 -26.59375 C 20.8125 -25.164062 21.460938 -23.257812 21.296875 -20.875 C 21.085938 -18.195312 19.503906 -15.398438 16.546875 -12.484375 L 13.734375 -9.8125 L 7.921875 -4.59375 L 19.671875 -4.546875 Z M 18.953125 0 "/></g></g><g style="fill:#ff2757;fill-opacity:1;"><g transform="translate(133.853724, 169.276269)"><path style="stroke:none" d="M 17.921875 -10.6875 L 21.03125 -10.6875 L 20.234375 -6.140625 L 17.109375 -6.140625 L 16.046875 0 L 10.53125 0 L 11.609375 -6.140625 L 0.328125 -6.140625 L 0.71875 -10 L 15.21875 -28.421875 L 20.984375 -28.421875 Z M 6.4375 -10.734375 L 12.40625 -10.6875 L 14.34375 -20.796875 L 13.84375 -20.09375 Z M 6.4375 -10.734375 "/></g></g><g style="fill:#ff2757;fill-opacity:1;"><g transform="translate(154.413905, 169.276269)"><path style="stroke:none" d="M 22.71875 -24.96875 L 8.28125 0 L 2.203125 0 L 16.609375 -23.84375 L 3.03125 -23.84375 L 3.75 -28.421875 L 23.25 -28.421875 Z M 22.71875 -24.96875 "/></g></g><g style="fill:#ff2757;fill-opacity:1;"><g transform="translate(174.974085, 169.276269)"><path style="stroke:none" d="M 7.890625 -10.015625 L 6.125 0 L 0.40625 0 L 5.34375 -28.421875 L 15.296875 -28.390625 C 18.367188 -28.390625 20.78125 -27.535156 22.53125 -25.828125 C 24.289062 -24.128906 25.0625 -21.910156 24.84375 -19.171875 C 24.632812 -16.378906 23.472656 -14.148438 21.359375 -12.484375 C 19.242188 -10.828125 16.546875 -10 13.265625 -10 Z M 8.6875 -14.75 L 13.453125 -14.71875 C 14.984375 -14.71875 16.253906 -15.113281 17.265625 -15.90625 C 18.285156 -16.695312 18.890625 -17.769531 19.078125 -19.125 C 19.273438 -20.476562 19.054688 -21.554688 18.421875 -22.359375 C 17.796875 -23.171875 16.863281 -23.601562 15.625 -23.65625 L 10.25 -23.671875 Z M 8.6875 -14.75 "/></g></g><g style="fill:#ff2757;fill-opacity:1;"><g transform="translate(198.285423, 169.276269)"><path style="stroke:none" d="M 12.59375 -10.40625 L 7.9375 -10.40625 L 6.125 0 L 0.40625 0 L 5.34375 -28.421875 L 14.75 -28.390625 C 17.90625 -28.390625 20.332031 -27.648438 22.03125 -26.171875 C 23.726562 -24.691406 24.476562 -22.628906 24.28125 -19.984375 C 24.007812 -16.078125 21.925781 -13.363281 18.03125 -11.84375 L 22.03125 -0.3125 L 22.03125 0 L 15.9375 0 Z M 8.765625 -15.140625 L 13.015625 -15.109375 C 14.523438 -15.128906 15.769531 -15.53125 16.75 -16.3125 C 17.738281 -17.101562 18.328125 -18.175781 18.515625 -19.53125 C 18.703125 -20.789062 18.5 -21.78125 17.90625 -22.5 C 17.320312 -23.21875 16.394531 -23.601562 15.125 -23.65625 L 10.25 -23.671875 Z M 8.765625 -15.140625 "/></g></g><g style="fill:#ff2757;fill-opacity:1;"><g transform="translate(221.343104, 169.276269)"><path style="stroke:none" d="M 11.828125 0.390625 C 9.941406 0.347656 8.28125 -0.09375 6.84375 -0.9375 C 5.40625 -1.789062 4.265625 -3.019531 3.421875 -4.625 C 2.585938 -6.238281 2.101562 -8.085938 1.96875 -10.171875 C 1.820312 -12.304688 2.046875 -14.582031 2.640625 -17 C 3.242188 -19.414062 4.207031 -21.539062 5.53125 -23.375 C 6.863281 -25.207031 8.425781 -26.578125 10.21875 -27.484375 C 12.007812 -28.398438 13.941406 -28.84375 16.015625 -28.8125 C 17.929688 -28.769531 19.601562 -28.316406 21.03125 -27.453125 C 22.46875 -26.585938 23.59375 -25.34375 24.40625 -23.71875 C 25.226562 -22.101562 25.695312 -20.265625 25.8125 -18.203125 C 25.945312 -15.921875 25.703125 -13.566406 25.078125 -11.140625 C 24.453125 -8.722656 23.484375 -6.628906 22.171875 -4.859375 C 20.859375 -3.085938 19.316406 -1.757812 17.546875 -0.875 C 15.785156 0.0078125 13.878906 0.429688 11.828125 0.390625 Z M 19.921875 -14.984375 L 20.078125 -16.84375 C 20.210938 -19.15625 19.90625 -20.910156 19.15625 -22.109375 C 18.40625 -23.304688 17.269531 -23.929688 15.75 -23.984375 C 13.363281 -24.066406 11.472656 -23.015625 10.078125 -20.828125 C 8.679688 -18.640625 7.890625 -15.582031 7.703125 -11.65625 C 7.578125 -9.351562 7.882812 -7.578125 8.625 -6.328125 C 9.363281 -5.085938 10.515625 -4.441406 12.078125 -4.390625 C 14.117188 -4.296875 15.8125 -5.09375 17.15625 -6.78125 C 18.5 -8.46875 19.378906 -10.851562 19.796875 -13.9375 Z M 19.921875 -14.984375 "/></g></g></g></svg>