<svg width="25" height="24" viewBox="0 0 25 24" fill="none" xmlns="http://www.w3.org/2000/svg">
<path d="M17.75 22C16.9167 22 16.2083 21.7083 15.625 21.125C15.0417 20.5417 14.75 19.8333 14.75 19C14.75 18.9 14.775 18.6667 14.825 18.3L7.8 14.2C7.53333 14.45 7.225 14.646 6.875 14.788C6.525 14.93 6.15 15.0007 5.75 15C4.91667 15 4.20833 14.7083 3.625 14.125C3.04167 13.5417 2.75 12.8333 2.75 12C2.75 11.1667 3.04167 10.4583 3.625 9.875C4.20833 9.29167 4.91667 9 5.75 9C6.15 9 6.525 9.071 6.875 9.213C7.225 9.355 7.53333 9.55067 7.8 9.8L14.825 5.7C14.7917 5.58333 14.771 5.471 14.763 5.363C14.755 5.255 14.7507 5.134 14.75 5C14.75 4.16667 15.0417 3.45833 15.625 2.875C16.2083 2.29167 16.9167 2 17.75 2C18.5833 2 19.2917 2.29167 19.875 2.875C20.4583 3.45833 20.75 4.16667 20.75 5C20.75 5.83333 20.4583 6.54167 19.875 7.125C19.2917 7.70833 18.5833 8 17.75 8C17.35 8 16.975 7.929 16.625 7.787C16.275 7.645 15.9667 7.44933 15.7 7.2L8.675 11.3C8.70833 11.4167 8.72933 11.5293 8.738 11.638C8.74667 11.7467 8.75067 11.8673 8.75 12C8.74933 12.1327 8.74533 12.2537 8.738 12.363C8.73067 12.4723 8.70967 12.5847 8.675 12.7L15.7 16.8C15.9667 16.55 16.275 16.3543 16.625 16.213C16.975 16.0717 17.35 16.0007 17.75 16C18.5833 16 19.2917 16.2917 19.875 16.875C20.4583 17.4583 20.75 18.1667 20.75 19C20.75 19.8333 20.4583 20.5417 19.875 21.125C19.2917 21.7083 18.5833 22 17.75 22Z" fill="white"/>
</svg>
