<svg width="24" height="23" viewBox="0 0 24 23" fill="none" xmlns="http://www.w3.org/2000/svg">
<path d="M22.5 18.75V20C22.5 20.663 22.2366 21.2989 21.7678 21.7678C21.2989 22.2366 20.663 22.5 20 22.5H2.5C1.83696 22.5 1.20107 22.2366 0.732233 21.7678C0.263392 21.2989 0 20.663 0 20V2.5C0 1.83696 0.263392 1.20107 0.732233 0.732233C1.20107 0.263392 1.83696 0 2.5 0H20C20.663 0 21.2989 0.263392 21.7678 0.732233C22.2366 1.20107 22.5 1.83696 22.5 2.5V3.75H11.25C10.587 3.75 9.95107 4.01339 9.48223 4.48223C9.01339 4.95107 8.75 5.58696 8.75 6.25V16.25C8.75 16.913 9.01339 17.5489 9.48223 18.0178C9.95107 18.4866 10.587 18.75 11.25 18.75M11.25 16.25H23.75V6.25H11.25M16.25 13.125C15.7527 13.125 15.2758 12.9275 14.9242 12.5758C14.5725 12.2242 14.375 11.7473 14.375 11.25C14.375 10.7527 14.5725 10.2758 14.9242 9.92417C15.2758 9.57254 15.7527 9.375 16.25 9.375C16.7473 9.375 17.2242 9.57254 17.5758 9.92417C17.9275 10.2758 18.125 10.7527 18.125 11.25C18.125 11.7473 17.9275 12.2242 17.5758 12.5758C17.2242 12.9275 16.7473 13.125 16.25 13.125Z" fill="white"/>
</svg>
